# xmcd CD database file
#
# Track frame offsets:
#	150
#	11950
#	25282
#	36586
#	46648
#	59780
#	71399
#	87773
#	102114
#	114973
#	129290
#	141385
#
# Disc length: 2046 seconds
#
# Revision: 0
# Processed by: cddbd v1.5.2PL0 Copyright (c) Steve Scherf et al.
# Submitted via: CDex 1.70beta2
#
DISCID=a207fc0c
DTITLE=Cosbey, Brian - Cdn. - ON - 201`0 - Country Moods
DYEAR=2010
DGENRE=Country
TTITLE0=Three Cord Country Song
TTITLE1=Touch Mt Heart
TTITLE2=I'm Sorry For You My Friend
TTITLE3=Settin' the Woods On Fire
TTITLE4=Charlie's Angel
TTITLE5=It's Not Love
TTITLE6=Picture In a Frame
TTITLE7=The French Song
TTITLE8=Blue Eyed Darlin'
TTITLE9=One More Time
TTITLE10=Jealous Heart
TTITLE11=Come Sundown
EXTD=YEAR: 2010
EXTT0=
EXTT1=
EXTT2=
EXTT3=
EXTT4=
EXTT5=
EXTT6=
EXTT7=
EXTT8=
EXTT9=
EXTT10=
EXTT11=
PLAYORDER=
